<?xml version="1.0" encoding="UTF-8" standalone="no"?>
<!-- Created with Inkscape (http://www.inkscape.org/) -->

<svg
   width="185.71141mm"
   height="30.505116mm"
   viewBox="0 0 185.71141 30.505116"
   version="1.1"
   id="svg5"
   inkscape:version="1.1 (c68e22c387, 2021-05-23)"
   sodipodi:docname="BeyondRGBLogo.svg"
   xmlns:inkscape="http://www.inkscape.org/namespaces/inkscape"
   xmlns:sodipodi="http://sodipodi.sourceforge.net/DTD/sodipodi-0.dtd"
   xmlns="http://www.w3.org/2000/svg"
   xmlns:svg="http://www.w3.org/2000/svg">
  <sodipodi:namedview
     id="namedview7"
     pagecolor="#505050"
     bordercolor="#ffffff"
     borderopacity="1"
     inkscape:pageshadow="0"
     inkscape:pageopacity="0"
     inkscape:pagecheckerboard="1"
     inkscape:document-units="mm"
     showgrid="false"
     inkscape:zoom="1.0305625"
     inkscape:cx="395.90029"
     inkscape:cy="85.390258"
     inkscape:window-width="1920"
     inkscape:window-height="1007"
     inkscape:window-x="1911"
     inkscape:window-y="-9"
     inkscape:window-maximized="1"
     inkscape:current-layer="layer1"
     fit-margin-top="0"
     fit-margin-left="0"
     fit-margin-right="0"
     fit-margin-bottom="0" />
  <defs
     id="defs2" />
  <g
     inkscape:groupmode="layer"
     id="layer2"
     inkscape:label="Layer 2"
     transform="translate(-13.122057,-106.16411)" />
  <g
     inkscape:label="Layer 1"
     inkscape:groupmode="layer"
     id="layer1"
     transform="translate(-13.122057,-106.16411)">
    <g
       aria-label="Beyond RGB"
       transform="scale(1.056949,0.94611946)"
       id="text1706"
       style="font-size:30.707px;line-height:1.25;font-family:'Berlin Sans FB';-inkscape-font-specification:'Berlin Sans FB';stroke-width:0.767678">
      <path
         d="m 29.641661,113.40762 q 3.500598,0 4.667464,1.53535 0.859796,1.16687 0.522019,2.94787 -0.122828,0.61414 -0.399191,1.2897 l -0.552726,1.47393 q -0.706261,1.7503 -1.873127,2.73293 -1.136159,0.98262 -1.873127,0.98262 l -0.09212,0.24566 q 0.859796,0 1.566057,0.95191 0.706261,0.95192 0.429898,2.24162 -0.09212,0.52201 -0.337777,1.10545 l -0.368484,0.95191 q -1.013331,2.64081 -3.193528,4.14545 -2.14949,1.50464 -5.465847,1.50464 H 12.415033 L 20.73663,113.40762 Z M 24.267935,126.4888 H 21.35077 l -1.596764,4.23757 h 2.917165 q 0.06141,0 0.122828,0 1.412522,0 2.36444,-0.64485 0.982624,-0.67555 1.166866,-1.62747 0.399191,-1.96525 -2.05737,-1.96525 z m 2.487268,-8.29089 h -2.303026 l -1.719592,4.57535 h 2.272319 q 2.947872,0 3.469891,-2.57939 0.184242,-0.8905 -0.245656,-1.44323 -0.429898,-0.55273 -1.473936,-0.55273 z"
         style="font-style:italic;fill:#e4be21"
         id="path81079" />
      <path
         d="m 38.792334,135.94656 q -6.387057,0 -5.496554,-4.42181 0.122828,-0.61414 0.399191,-1.3204 l 1.381815,-3.80767 q 1.136159,-2.94787 3.623427,-4.51393 2.517974,-1.59676 6.1414,-1.59676 6.172107,0 5.250897,4.66746 -0.153535,0.67556 -0.429898,1.47394 l -0.798382,2.1802 h -9.365635 l -0.276363,0.70626 q -0.122828,0.36848 -0.184242,0.67555 -0.337777,1.68889 1.658178,1.68889 0.736968,0 1.351108,-0.46061 0.61414,-0.4606 0.829089,-1.07474 l 5.097362,0.0614 q -2.180197,5.74221 -9.181393,5.74221 z m 5.52726,-9.2121 q 0.245656,-0.52202 0.30707,-0.95192 0.09212,-0.4606 -0.214949,-0.92121 -0.30707,-0.4606 -1.197573,-0.4606 -0.859796,0 -1.688885,0.58343 -0.829089,0.58343 -1.351108,1.7503 z"
         style="font-style:italic;fill:#e4be21"
         id="path81081" />
      <path
         d="m 56.817287,128.91466 q -0.214949,0.55272 -0.30707,1.10545 -0.30707,1.47394 1.351108,1.47394 1.351108,0 2.425853,-0.95192 l 3.68484,-9.79553 h 5.22019 l -5.742209,15.26137 q -1.473936,3.89979 -4.329687,6.17211 -2.855751,2.27232 -5.957158,2.27232 -3.101407,0 -4.237566,-1.13616 -1.136159,-1.13616 -0.767675,-2.97858 0.522019,-2.61009 4.145445,-4.63676 -1.658178,-0.42989 -1.873127,-1.75029 -0.122828,-0.73697 0.06141,-1.65818 0.184242,-0.92121 0.522019,-1.87313 l 3.654133,-9.6727 h 5.22019 z m -2.088076,11.14664 q 1.995955,0 3.347063,-3.62343 l 0.675554,-1.781 q -4.667464,1.99595 -5.097362,4.02261 -0.122828,0.61414 0.153535,0.98263 0.276363,0.39919 0.92121,0.39919 z"
         style="font-style:italic;fill:#e4be21"
         id="path81083" />
      <path
         d="m 79.356215,120.3167 q 3.316356,0 4.728878,1.44323 1.074745,1.13616 0.675554,3.16282 -0.122828,0.67555 -0.460605,1.47393 l -1.351108,3.59272 q -1.22828,3.25494 -3.654133,4.60605 -2.395146,1.35111 -5.957159,1.35111 -3.562012,0 -4.943827,-1.35111 -1.013331,-1.01333 -0.61414,-3.03999 0.122828,-0.70626 0.460605,-1.56606 l 1.351108,-3.59272 q 2.303025,-6.07998 9.764827,-6.07998 z m -0.522019,6.69412 q 0.122828,-0.30707 0.214949,-0.76767 0.122828,-0.49131 -0.184242,-1.07475 -0.276363,-0.58343 -1.289694,-0.58343 -0.982624,0 -1.781006,0.67555 -0.798383,0.64485 -1.228281,1.7503 l -0.859796,2.30303 q -0.122828,0.30707 -0.214949,0.79838 -0.09212,0.46061 0.184242,1.01333 0.30707,0.55273 1.289694,0.55273 1.013332,0 1.811714,-0.67556 0.829089,-0.70626 1.197573,-1.68888 z"
         style="font-style:italic;fill:#e4be21"
         id="path81085" />
      <path
         d="m 96.214331,126.08961 q 0.276363,-1.3204 -1.013331,-1.3204 -1.258987,0 -2.272318,0.95192 l -3.68484,9.79553 h -5.22019 l 5.557967,-14.77006 h 4.851706 l -0.706261,1.81171 q 2.272318,-2.24161 5.035948,-2.24161 2.763628,0 3.316358,1.35111 0.36848,0.85979 0.12283,1.96524 -0.21495,1.10546 -0.55273,2.05737 l -1.781006,4.72888 q -0.06141,0.18424 -0.09212,0.33778 -0.153535,0.82909 0.767677,0.82909 0.70626,0 1.3204,-0.30707 l -0.8598,3.46989 q -1.688882,1.19757 -3.531302,1.19757 -4.176152,0 -3.469891,-3.5006 0.122828,-0.61414 0.399191,-1.3204 l 1.53535,-4.08403 q 0.214949,-0.55273 0.276363,-0.95192 z"
         style="font-style:italic;fill:#e4be21"
         id="path81087" />
      <path
         d="m 118.16983,130.78778 q -0.15354,0.79839 0.64485,0.79839 0.82908,0 1.44322,-0.30707 l -0.85979,3.46989 q -1.71959,1.19757 -3.56201,1.19757 -3.37777,0 -3.25495,-2.45656 -2.02666,2.45656 -5.00524,2.45656 -5.03595,0 -4.17615,-4.32969 0.15354,-0.73696 0.49131,-1.62747 l 1.35111,-3.59272 q 1.04404,-2.76363 3.13211,-4.3911 2.11879,-1.65818 5.2509,-1.65818 1.93454,0 2.88646,0.82909 l 3.37777,-8.96644 h 5.2509 l -6.87837,18.20925 q -0.0614,0.18424 -0.0921,0.36848 z m -8.81291,-1.47393 q -0.0921,0.27636 -0.21495,0.76767 -0.0921,0.49132 0.27636,0.98263 0.36849,0.4606 1.44323,0.4606 1.10545,0 2.08808,-0.85979 l 1.93454,-5.15878 q -0.18424,-0.76767 -1.44323,-0.76767 -2.36444,0 -3.22424,2.27231 z"
         style="font-style:italic;fill:#e4be21"
         id="path81089" />
      <path
         d="m 141.96769,113.40762 q 3.5006,0 4.97454,1.53535 1.10545,1.16687 1.10545,2.94787 0,0.61414 -0.12283,1.2897 l -0.4299,2.39514 q -0.36848,1.99596 -1.28969,3.22424 -0.8905,1.22828 -1.99596,1.7503 l 2.79434,8.96644 h -6.20281 l -2.57939,-8.26018 h -1.90383 l -1.25899,8.26018 h -5.89575 l 3.89979,-22.10904 z m -1.93454,4.79029 h -2.30302 l -0.79838,5.34302 h 2.14949 q 1.62747,0 2.33373,-0.76767 0.70626,-0.79838 0.70626,-2.08808 0,-2.48727 -2.08808,-2.48727 z"
         style="fill:#a64c4c"
         id="path81091" />
      <path
         d="m 157.01408,135.94656 q -4.3604,0 -6.01858,-2.02666 -1.13615,-1.41252 -1.13615,-3.86908 0,-1.13616 0.24565,-2.48727 l 1.07475,-6.1414 q 1.44323,-8.22948 10.07189,-8.22948 3.56201,0 5.40443,1.53535 1.84242,1.50465 1.84242,4.14545 0,1.07474 -0.30707,2.1802 -0.27636,1.10545 -0.55272,1.65817 l -0.30707,0.55273 h -5.43514 q 0.79838,-1.10545 0.79838,-2.54868 0,-2.76363 -2.30302,-2.76363 -3.10141,0 -3.71555,3.59272 l -1.04404,5.89574 q -0.15353,0.82909 -0.15353,1.62747 0,2.11879 2.48726,2.11879 2.51798,0 3.22424,-2.51798 h -2.51798 l 0.61414,-3.40848 h 8.13736 l -0.49131,2.64081 -0.15354,0.8905 q -1.28969,7.15473 -9.76482,7.15473 z"
         style="fill:#5ebd67"
         id="path81093" />
      <path
         d="m 182.04023,113.40762 q 3.50059,0 4.97453,1.53535 1.10545,1.16687 1.10545,2.94787 0,0.61414 -0.12283,1.2897 l -0.27636,1.47393 q -0.33778,1.7503 -1.3204,2.73293 -0.95192,0.98262 -1.68888,0.98262 l -0.0307,0.24566 q 0.85979,0 1.7503,0.95191 0.8905,0.95192 0.8905,2.24162 0,0.52201 -0.12283,1.10545 l -0.18424,0.95191 q -0.49131,2.64081 -2.36444,4.14545 -1.84242,1.50464 -5.15878,1.50464 h -10.25613 l 3.89979,-22.10904 z m -2.76363,13.08118 h -2.91717 l -0.73697,4.23757 h 2.91717 q 0.0614,0 0.12283,0 1.41252,0 2.24161,-0.64485 0.82909,-0.67555 0.82909,-1.62747 0,-1.96525 -2.45656,-1.96525 z m 0.82908,-8.29089 h -2.30302 l -0.79838,4.57535 h 2.27232 q 2.94787,0 2.94787,-2.57939 0,-0.8905 -0.55273,-1.44323 -0.52202,-0.55273 -1.56606,-0.55273 z"
         style="fill:#5e6ab5"
         id="path81095" />
    </g>
  </g>
</svg>
